<svg width="159" height="23" viewBox="0 0 159 23" fill="none" xmlns="http://www.w3.org/2000/svg">
<g clip-path="url(#clip0_18_9499)">
<path d="M21.8231 0.270825V11.4682C21.8231 14.0511 20.9753 16.4319 19.5483 18.3333C18.634 19.5533 17.48 20.5778 16.1596 21.3297C16.0331 21.4024 15.9066 21.4706 15.7778 21.5387C14.2976 22.3066 12.6265 22.7428 10.8533 22.7519C10.8356 22.7519 10.8178 22.7519 10.8001 22.7519H10.5759C8.60523 22.7519 6.76103 22.2044 5.17649 21.2502C2.02959 19.3533 -0.0831299 15.8503 -0.0831299 11.8407V11.2524C-0.0831299 7.2314 2.02737 3.71477 5.17649 1.80197C5.374 1.68157 5.57595 1.56798 5.78012 1.46121C7.21598 0.711542 8.83603 0.284457 10.5537 0.268555C10.5848 0.268555 10.6159 0.268555 10.6447 0.268555H21.8231V0.270825Z" fill="#7E9ACF"/>
<path d="M10.8534 0.270825V22.7519C10.8356 22.7519 10.8178 22.7519 10.8001 22.7519H10.5759C8.60525 22.7519 6.76106 22.2044 5.17651 21.2502V1.80197C5.37403 1.68157 5.57598 1.56798 5.78015 1.46121C7.216 0.711542 8.83606 0.284457 10.5538 0.268555C10.5848 0.268555 10.6159 0.268555 10.6447 0.268555H10.8534V0.270825Z" fill="#78C7CE"/>
<path d="M19.5481 18.3353C18.6338 19.5552 17.4798 20.5798 16.1593 21.3317C16.0328 21.4044 15.9063 21.4725 15.7776 21.5407L10.8531 11.6496L5.7821 1.46316C7.21796 0.713495 8.83801 0.28641 10.5557 0.270508L10.8531 0.865703L16.1593 11.5246L19.5481 18.3353Z" fill="#84CEBF"/>
<path d="M21.8236 0.270825V11.4682C21.8236 14.0511 20.9758 16.4319 19.5488 18.3333C18.6345 19.5532 17.4805 20.5778 16.16 21.3297V0.268555H21.8236V0.270825Z" fill="#78C7CE"/>
<path d="M43.4908 17.0936H41.1292L35.7815 8.82362V17.0936H33.4198V5.02344H35.7815L41.1292 13.3108V5.02344H43.4908V17.0936Z" fill="#16191D"/>
<path d="M54.4385 13.0371H47.6063C47.6615 13.7284 47.8994 14.2698 48.3156 14.6611C48.7319 15.0524 49.2437 15.2481 49.8511 15.2481C50.7283 15.2481 51.3527 14.8633 51.7243 14.0915H54.2708C54.001 15.0133 53.4828 15.7698 52.7183 16.3612C51.9537 16.9547 51.015 17.2503 49.9021 17.2503C49.0016 17.2503 48.1946 17.046 47.481 16.6373C46.7674 16.2286 46.2109 15.6503 45.8117 14.9024C45.4124 14.1546 45.2128 13.2915 45.2128 12.3132C45.2128 11.324 45.4103 10.4544 45.8032 9.70651C46.1961 8.95865 46.7483 8.38254 47.4555 7.98035C48.1648 7.57816 48.9783 7.37598 49.9021 7.37598C50.7899 7.37598 51.5863 7.57163 52.2893 7.96296C52.9922 8.35428 53.538 8.91083 53.9246 9.62825C54.3132 10.3479 54.5065 11.174 54.5065 12.1066C54.5044 12.4501 54.4831 12.761 54.4385 13.0371ZM52.0599 11.4131C52.0493 10.7913 51.8284 10.2935 51.4015 9.91957C50.9746 9.54564 50.4522 9.35868 49.832 9.35868C49.248 9.35868 48.7553 9.53912 48.356 9.90218C47.9567 10.2652 47.7125 10.7674 47.6212 11.4131H52.0599Z" fill="#16191D"/>
<path d="M69.1806 7.52734L66.4473 17.093H63.9008L62.1976 10.4101L60.4943 17.093H57.9309L55.1805 7.52734H57.5762L59.2285 14.8146L61.0167 7.52734H63.5122L65.2664 14.7973L66.9188 7.52734H69.1806Z" fill="#16191D"/>
<path d="M73.2123 9.51525V14.1437C73.2123 14.4655 73.2887 14.6981 73.4395 14.8438C73.5903 14.9894 73.8473 15.059 74.2062 15.059H75.3021V17.0961H73.8176C71.8276 17.0961 70.8315 16.1069 70.8315 14.1263V9.51525H69.7186V7.53037H70.8315V5.16504H73.2102V7.53037H75.3021V9.51525H73.2123Z" fill="#16191D"/>
<path d="M78.7266 16.6373C78.0066 16.2286 77.4417 15.6503 77.0318 14.9024C76.6219 14.1546 76.4159 13.2915 76.4159 12.3132C76.4159 11.3349 76.6262 10.4718 77.0488 9.72391C77.4714 8.97605 78.047 8.39776 78.7776 7.98904C79.5081 7.58033 80.3237 7.37598 81.2242 7.37598C82.1247 7.37598 82.9381 7.58033 83.6708 7.98904C84.4014 8.39776 84.979 8.97605 85.3995 9.72391C85.8222 10.4718 86.0324 11.3349 86.0324 12.3132C86.0324 13.2915 85.8158 14.1546 85.3826 14.9024C84.9493 15.6503 84.3653 16.2286 83.6283 16.6373C82.8913 17.046 82.0673 17.2503 81.1562 17.2503C80.2557 17.2503 79.4465 17.046 78.7266 16.6373ZM82.3625 14.8241C82.7384 14.6111 83.04 14.2915 83.2651 13.8654C83.4903 13.4393 83.6028 12.9219 83.6028 12.311C83.6028 11.4022 83.3692 10.7022 82.902 10.2131C82.4347 9.72391 81.8656 9.47824 81.1902 9.47824C80.5148 9.47824 79.9499 9.72391 79.4954 10.2131C79.0409 10.7022 78.8115 11.4022 78.8115 12.311C78.8115 13.2197 79.0324 13.9198 79.4784 14.4089C79.9223 14.8981 80.483 15.1437 81.1562 15.1437C81.5831 15.1437 81.9845 15.0372 82.3625 14.8241Z" fill="#16191D"/>
<path d="M95.6448 8.46916C96.3308 9.18876 96.6727 10.1932 96.6727 11.4823V17.0935H94.311V11.8106C94.311 11.0497 94.1263 10.4671 93.7546 10.0584C93.3829 9.64965 92.8775 9.44529 92.2361 9.44529C91.5841 9.44529 91.0701 9.64965 90.6921 10.0584C90.3162 10.4671 90.1272 11.0519 90.1272 11.8106V17.0935H87.7655V7.52781H90.1272V8.71917C90.4415 8.30393 90.845 7.98 91.3335 7.74303C91.8219 7.50824 92.3593 7.38867 92.9433 7.38867C94.0604 7.39085 94.9588 7.74956 95.6448 8.46916Z" fill="#16191D"/>
<path d="M104.761 16.7886C104.147 16.5016 103.665 16.0994 103.313 15.5842C102.962 15.0689 102.775 14.495 102.752 13.8602H104.049C104.109 14.4711 104.37 15.0059 104.84 15.4668C105.307 15.9277 105.991 16.1581 106.893 16.1581C107.724 16.1581 108.382 15.9407 108.866 15.5037C109.35 15.0668 109.595 14.5124 109.595 13.8428C109.595 13.3036 109.461 12.871 109.191 12.5406C108.921 12.2123 108.588 11.9666 108.191 11.8036C107.794 11.6427 107.244 11.4644 106.541 11.2731C105.721 11.047 105.073 10.8231 104.593 10.6079C104.113 10.3926 103.703 10.0578 103.366 9.6013C103.026 9.14693 102.856 8.52951 102.856 7.75121C102.856 7.10553 103.019 6.52724 103.346 6.01852C103.674 5.5098 104.137 5.11196 104.733 4.82499C105.33 4.53802 106.014 4.39453 106.787 4.39453C107.921 4.39453 108.837 4.67933 109.533 5.24675C110.23 5.81634 110.629 6.54898 110.735 7.44685H109.401C109.319 6.93161 109.045 6.47506 108.577 6.07287C108.11 5.67285 107.477 5.47067 106.683 5.47067C105.946 5.47067 105.332 5.67068 104.842 6.07287C104.351 6.47506 104.105 7.02292 104.105 7.71643C104.105 8.24254 104.238 8.66864 104.508 8.99257C104.778 9.3165 105.113 9.56217 105.517 9.72957C105.921 9.89697 106.466 10.0774 107.157 10.2687C107.951 10.497 108.594 10.7209 109.087 10.9427C109.578 11.1644 109.994 11.5036 110.334 11.9579C110.674 12.4123 110.843 13.0232 110.843 13.7906C110.843 14.3776 110.691 14.9342 110.387 15.4603C110.083 15.9864 109.633 16.4125 109.036 16.7364C108.439 17.0603 107.726 17.2212 106.895 17.2212C106.086 17.219 105.375 17.0756 104.761 16.7886Z" fill="#16191D"/>
<path d="M113.243 9.5241C113.64 8.76319 114.19 8.17621 114.891 7.76315C115.592 7.35009 116.395 7.14355 117.295 7.14355C118.476 7.14355 119.451 7.44357 120.216 8.04143C120.982 8.63928 121.475 9.45453 121.698 10.4828H120.381C120.218 9.77629 119.863 9.22192 119.319 8.8219C118.776 8.42188 118.1 8.21969 117.293 8.21969C116.65 8.21969 116.072 8.3697 115.556 8.66971C115.042 8.96973 114.634 9.4154 114.337 10.0067C114.04 10.6002 113.889 11.3264 113.889 12.1894C113.889 13.0525 114.037 13.783 114.337 14.3809C114.636 14.9787 115.042 15.4287 115.556 15.7288C116.07 16.0288 116.65 16.1788 117.293 16.1788C118.1 16.1788 118.776 15.9788 119.319 15.5766C119.863 15.1765 120.218 14.6157 120.381 13.8982H121.698C121.475 14.9048 120.978 15.7114 120.207 16.3223C119.436 16.9332 118.463 17.2375 117.295 17.2375C116.395 17.2375 115.594 17.031 114.891 16.6179C114.19 16.2049 113.64 15.6179 113.243 14.857C112.846 14.0961 112.646 13.2069 112.646 12.1894C112.646 11.1742 112.846 10.285 113.243 9.5241Z" fill="#16191D"/>
<path d="M130.48 7.57541C131.06 7.88629 131.514 8.3624 131.848 9.00374C132.181 9.64507 132.347 10.4255 132.347 11.3473V17.0933H131.136V11.4908C131.136 10.4255 130.875 9.61029 130.355 9.04939C129.834 8.48632 129.123 8.20587 128.222 8.20587C127.298 8.20587 126.561 8.50589 126.011 9.10374C125.461 9.7016 125.187 10.5821 125.187 11.743V17.0954H123.96V3.80566H125.187V8.96026C125.491 8.37327 125.939 7.9189 126.53 7.59497C127.12 7.27105 127.785 7.11017 128.522 7.11017C129.25 7.108 129.902 7.26452 130.48 7.57541Z" fill="#16191D"/>
<path d="M136.831 16.6172C136.111 16.2041 135.544 15.6171 135.13 14.8562C134.714 14.0953 134.508 13.2061 134.508 12.1887C134.508 11.1713 134.718 10.2821 135.139 9.52118C135.559 8.76027 136.133 8.17328 136.859 7.76022C137.583 7.34716 138.397 7.14062 139.297 7.14062C140.198 7.14062 141.013 7.34716 141.744 7.76022C142.474 8.17328 143.048 8.76027 143.464 9.52118C143.878 10.2821 144.086 11.1713 144.086 12.1887C144.086 13.1953 143.876 14.0801 143.455 14.8475C143.035 15.615 142.455 16.2041 141.718 16.6172C140.981 17.0302 140.161 17.2368 139.261 17.2368C138.36 17.2368 137.551 17.0302 136.831 16.6172ZM141.015 15.7019C141.553 15.4084 141.988 14.9649 142.321 14.3736C142.655 13.7801 142.82 13.054 142.82 12.1909C142.82 11.33 142.657 10.6017 142.33 10.0082C142.003 9.41465 141.57 8.97333 141.032 8.67983C140.495 8.38634 139.909 8.24068 139.278 8.24068C138.647 8.24068 138.061 8.38634 137.524 8.67983C136.986 8.97333 136.555 9.41682 136.235 10.0082C135.912 10.6017 135.752 11.3278 135.752 12.1909C135.752 13.054 135.914 13.7801 136.235 14.3736C136.555 14.9671 136.982 15.4084 137.515 15.7019C138.048 15.9954 138.63 16.1411 139.261 16.1411C139.892 16.1411 140.478 15.9954 141.015 15.7019Z" fill="#16191D"/>
<path d="M148.094 16.6172C147.374 16.2041 146.807 15.6171 146.393 14.8562C145.976 14.0953 145.77 13.2061 145.77 12.1887C145.77 11.1713 145.981 10.2821 146.401 9.52118C146.822 8.76027 147.395 8.17328 148.121 7.76022C148.846 7.34716 149.659 7.14062 150.56 7.14062C151.46 7.14062 152.276 7.34716 153.006 7.76022C153.737 8.17328 154.31 8.76027 154.726 9.52118C155.141 10.2821 155.349 11.1713 155.349 12.1887C155.349 13.1953 155.138 14.0801 154.718 14.8475C154.297 15.615 153.718 16.2041 152.981 16.6172C152.244 17.0302 151.424 17.2368 150.523 17.2368C149.623 17.2368 148.814 17.0302 148.094 16.6172ZM152.28 15.7019C152.817 15.4084 153.253 14.9649 153.586 14.3736C153.919 13.7801 154.085 13.054 154.085 12.1909C154.085 11.33 153.922 10.6017 153.594 10.0082C153.267 9.41465 152.834 8.97333 152.297 8.67983C151.759 8.38634 151.173 8.24068 150.543 8.24068C149.912 8.24068 149.326 8.38634 148.788 8.67983C148.251 8.97333 147.82 9.41682 147.499 10.0082C147.176 10.6017 147.017 11.3278 147.017 12.1909C147.017 13.054 147.178 13.7801 147.499 14.3736C147.82 14.9671 148.247 15.4084 148.78 15.7019C149.313 15.9954 149.895 16.1411 150.526 16.1411C151.156 16.1411 151.74 15.9954 152.28 15.7019Z" fill="#16191D"/>
<path d="M158.823 3.80371V17.0935H157.596V3.80371H158.823Z" fill="#16191D"/>
</g>
<defs>
<clipPath id="clip0_18_9499">
<rect width="159" height="23" fill="white"/>
</clipPath>
</defs>
</svg>
